<svg xmlns="http://www.w3.org/2000/svg" version="1.1" xmlns:xlink="http://www.w3.org/1999/xlink" xmlns:svgjs="http://svgjs.dev/svgjs" width="128" height="128" viewBox="0 0 128 128"><g transform="matrix(0.8046875,0,0,0.8046875,12.760752631578946,12.760752631578946)"><svg viewBox="0 0 95 95" data-background-color="#ffffff" preserveAspectRatio="xMidYMid meet" height="128" width="128" xmlns="http://www.w3.org/2000/svg" xmlns:xlink="http://www.w3.org/1999/xlink"><g id="tight-bounds" transform="matrix(1,0,0,1,-0.24049999999999727,-0.24049999999999727)"><svg viewBox="0 0 95.481 95.481" height="95.481" width="95.481"><g><svg viewBox="0 0 95.481 95.481" height="95.481" width="95.481"><g><svg viewBox="0 0 95.481 95.481" height="95.481" width="95.481"><g id="textblocktransform"><svg viewBox="0 0 95.481 95.481" height="95.481" width="95.481" id="textblock"><g><svg viewBox="0 0 95.481 95.481" height="95.481" width="95.481"><g><svg viewBox="0 0 95.481 95.481" height="95.481" width="95.481"><g><svg xmlns="http://www.w3.org/2000/svg" xmlns:xlink="http://www.w3.org/1999/xlink" version="1.1" x="0" y="0" viewBox="5 5 90 90" enable-background="new 0 0 100 100" xml:space="preserve" height="95.481" width="95.481" class="icon-icon-0" data-fill-palette-color="accent" id="icon-0"><path d="M84.3 5.7C83.8 5.3 83.2 5 82.5 5H17.5C16.8 5 16.2 5.3 15.7 5.7L5.7 15.7C5.3 16.2 5 16.8 5 17.5V82.5C5 83.2 5.3 83.8 5.7 84.3L15.7 94.3C16.2 94.8 16.8 95 17.5 95H82.5C83.2 95 83.8 94.7 84.3 94.3L94.3 84.3C94.8 83.8 95 83.2 95 82.5V17.5C95 16.8 94.7 16.2 94.3 15.7zM86.3 76.1V23.9L90 21V79zM10 79V21L13.8 23.9V76zM16.3 25.9L21.3 29.8V70.2L16.3 74.1zM70.1 33.3L66.7 29.9 70.6 24.9 75.2 29.5zM35.6 71.3H64.4L68.3 76.3H31.7zM64.5 68.8H35.5L31.2 64.5V35.5L35.5 31.2H64.5L68.8 35.5V64.5zM64.4 28.8H35.6L31.7 23.8H68.3zM70.2 21.3H29.8L25.9 16.3H74.1zM33.3 29.9L29.9 33.3 24.9 29.4 29.5 24.8zM28.8 35.6V64.4L23.8 68.3V31.7zM29.9 66.7L33.3 70.1 29.4 75.1 24.8 70.5zM29.8 78.7H70.2L74.1 83.7H25.9zM66.7 70.1L70.1 66.7 75.1 70.6 70.5 75.2zM71.3 64.4V35.6L76.3 31.7V68.3zM77.1 27.9L72.1 22.9 76.6 17.2 82.9 23.5zM76.1 13.8H23.9L21 10H79zM27.9 22.9L22.9 27.9 16.5 22.9 22.9 16.5zM22.9 72.1L27.9 77.1 22.9 83.5 16.5 77.1zM23.9 86.3H76L79 90H21zM72.1 77.1L77.1 72.1 83.5 77.1 77.1 83.5zM78.7 70.2V29.8L83.7 25.9V74.1zM89.6 18.2L84.8 21.9 78.1 15.2 81.8 10.4zM18.2 10.4L21.3 14.4 14.4 21.3 10.4 18.2zM10.4 81.8L14.4 78.7 21.3 85.6 18.2 89.6zM81.8 89.6L78.7 85.6 85.6 78.7 89.6 81.8z" fill="#ffffff" data-fill-palette-color="accent"></path></svg></g></svg></g></svg></g></svg></g></svg></g></svg></g><defs></defs></svg><rect width="95.481" height="95.481" fill="none" stroke="none" visibility="hidden"></rect></g></svg></g></svg>