<svg xmlns="http://www.w3.org/2000/svg" version="1.1" xmlns:xlink="http://www.w3.org/1999/xlink" xmlns:svgjs="http://svgjs.dev/svgjs" width="2000" height="414" viewBox="0 0 2000 414"><g transform="matrix(1,0,0,1,-1.2121212121212466,-2.151408742994704)"><svg viewBox="0 0 396 82" data-background-color="#ffffff" preserveAspectRatio="xMidYMid meet" height="414" width="2000" xmlns="http://www.w3.org/2000/svg" xmlns:xlink="http://www.w3.org/1999/xlink"><g id="tight-bounds" transform="matrix(1,0,0,1,0.2400000000000091,0.42612443701827374)"><svg viewBox="0 0 395.52 81.14775112596344" height="81.14775112596344" width="395.52"><g><svg viewBox="0 0 520.5678600200325 106.80347681300813" height="81.14775112596344" width="395.52"><g transform="matrix(1,0,0,1,125.04786002003252,14.76082783739838)"><svg viewBox="0 0 395.52 77.28182113821137" height="77.28182113821137" width="395.52"><g id="textblocktransform"><svg viewBox="0 0 395.52 77.28182113821137" height="77.28182113821137" width="395.52" id="textblock"><g><svg viewBox="0 0 395.52 77.28182113821137" height="77.28182113821137" width="395.52"><g transform="matrix(1,0,0,1,0,0)"><svg width="395.52" viewBox="3 -35.25 184.48 36.05" height="77.28182113821137" data-palette-color="#000000"><path d="M17.5 0L13.5 0 21.35-35.25 25.3-35.25 17.5 0ZM17.3 0L13.35 0 5.5-35.25 9.5-35.25 17.3 0ZM7.55 0L3 0 3-35.25 7.55-35.25 7.55 0ZM27.85 0L23.3 0 23.3-35.25 27.85-35.25 27.85 0ZM38.9 0L34.35 0 34.35-25.25 38.9-25.25 38.9 0ZM36.6-28.6L36.6-28.6Q35.35-28.6 34.5-29.45 33.65-30.3 33.65-31.55L33.65-31.55Q33.65-32.8 34.5-33.68 35.35-34.55 36.6-34.55L36.6-34.55Q37.85-34.55 38.72-33.68 39.6-32.8 39.6-31.55L39.6-31.55Q39.6-30.3 38.72-29.45 37.85-28.6 36.6-28.6ZM49.09-8.9L44.55-8.9 44.55-16.35 49.09-16.35 49.09-8.9ZM49.09-16.3L44.55-16.3Q44.55-19.1 45.77-21.3 47-23.5 49.07-24.78 51.15-26.05 53.8-26.05L53.8-26.05 53.8-22.1Q51.59-22.1 50.34-20.6 49.09-19.1 49.09-16.3L49.09-16.3ZM62.7-18.6L58.45-17.75Q58.2-20 56.87-21.05 55.55-22.1 53.75-22.1L53.75-22.1 53.75-26.05Q56.09-26.05 58-25.1 59.9-24.15 61.15-22.48 62.4-20.8 62.7-18.6L62.7-18.6ZM44.55-8.95L44.55-8.95 49.09-8.95Q49.09-6.2 50.34-4.67 51.59-3.15 53.8-3.15L53.8-3.15 53.8 0.8Q51.15 0.8 49.07-0.48 47-1.75 45.77-3.95 44.55-6.15 44.55-8.95ZM58.45-7.5L58.45-7.5 62.7-6.65Q62.4-4.5 61.15-2.8 59.9-1.1 58-0.15 56.09 0.8 53.75 0.8L53.75 0.8 53.75-3.15Q55.55-3.15 56.87-4.23 58.2-5.3 58.45-7.5ZM71.29 0L66.74 0 66.74-25.25 71.29-25.25 71.29 0ZM71.29-16.9L69.24-16.9Q69.24-19.45 70.09-21.48 70.94-23.5 72.42-24.65 73.89-25.8 75.69-25.8L75.69-25.8 75.29-21.55Q73.54-21.55 72.42-20.23 71.29-18.9 71.29-16.9L71.29-16.9ZM79.84-24.2L78.29-20.4Q77.69-20.9 76.87-21.23 76.04-21.55 75.29-21.55L75.29-21.55 75.69-25.8Q76.84-25.8 77.94-25.38 79.04-24.95 79.84-24.2L79.84-24.2ZM99.34-8.95L94.79-8.95 94.79-16.3 99.34-16.3 99.34-8.95ZM85.29-8.95L80.74-8.95 80.74-16.3 85.29-16.3 85.29-8.95ZM90.19-22.05L89.89-22.05 89.89-26 90.19-26 90.19-22.05ZM90.19 0.75L89.89 0.75 89.89-3.2 90.19-3.2 90.19 0.75ZM85.29-16.25L80.74-16.25Q80.74-19.05 81.97-21.25 83.19-23.45 85.27-24.73 87.34-26 89.99-26L89.99-26 89.99-22.05Q87.79-22.05 86.54-20.55 85.29-19.05 85.29-16.25L85.29-16.25ZM99.34-16.25L99.34-16.25 94.79-16.25Q94.79-19.05 93.57-20.55 92.34-22.05 90.09-22.05L90.09-22.05 90.09-26Q92.74-26 94.82-24.73 96.89-23.45 98.12-21.25 99.34-19.05 99.34-16.25ZM80.74-9L80.74-9 85.29-9Q85.29-6.25 86.54-4.73 87.79-3.2 89.99-3.2L89.99-3.2 89.99 0.75Q87.34 0.75 85.27-0.53 83.19-1.8 81.97-4 80.74-6.2 80.74-9ZM94.79-9L99.34-9Q99.34-6.2 98.12-4 96.89-1.8 94.82-0.53 92.74 0.75 90.09 0.75L90.09 0.75 90.09-3.2Q92.34-3.2 93.57-4.73 94.79-6.25 94.79-9L94.79-9ZM121.24-31.3L100.49-31.3 100.49-35.25 121.24-35.25 121.24-31.3ZM113.14 0L108.59 0 108.59-35.25 113.14-35.25 113.14 0ZM135.94-25.25L140.49-25.25 140.49 0 135.94 0 135.94-25.25ZM121.89-25.25L126.44-25.25 126.44-8.05 121.89-8.05 121.89-25.25ZM121.89-8.05L126.44-8.05Q126.44-5.95 127.76-4.63 129.09-3.3 131.14-3.3L131.14-3.3 129.99 0.75Q127.64 0.75 125.81-0.4 123.99-1.55 122.94-3.55 121.89-5.55 121.89-8.05L121.89-8.05ZM135.94-8.2L137.94-8.2Q137.94-5.65 136.91-3.63 135.89-1.6 134.06-0.43 132.24 0.75 129.99 0.75L129.99 0.75 131.14-3.3Q133.24-3.3 134.59-4.65 135.94-6 135.94-8.2L135.94-8.2ZM151.03-25.2L146.48-25.2 146.48-35.25 151.03-35.25 151.03-25.2ZM151.03-25.25L151.03 0 146.48 0 146.48-25.25 151.03-25.25ZM165.08-17.2L165.08-8.05 160.53-8.05 160.53-17.2 165.08-17.2ZM165.08-17.2L160.53-17.2Q160.53-19.3 159.23-20.63 157.93-21.95 155.88-21.95L155.88-21.95 157.03-26Q159.33-26 161.16-24.85 162.98-23.7 164.03-21.7 165.08-19.7 165.08-17.2L165.08-17.2ZM151.03-17.1L149.03-17.1Q149.03-19.65 150.08-21.68 151.13-23.7 152.93-24.85 154.73-26 157.03-26L157.03-26 155.88-21.95Q153.73-21.95 152.38-20.6 151.03-19.25 151.03-17.1L151.03-17.1ZM160.53-8.05L160.53-8.05 165.08-8.05Q165.08-5.55 164.03-3.55 162.98-1.55 161.16-0.4 159.33 0.75 157.03 0.75L157.03 0.75 155.88-3.3Q157.93-3.3 159.23-4.63 160.53-5.95 160.53-8.05ZM149.03-8.2L149.03-8.2 151.03-8.2Q151.03-6 152.38-4.65 153.73-3.3 155.88-3.3L155.88-3.3 157.03 0.75Q154.73 0.75 152.93-0.43 151.13-1.6 150.08-3.63 149.03-5.65 149.03-8.2ZM187.48-11.25L170.43-11.25 170.43-14.5 187.48-14.5 187.48-11.25ZM178.43 0.8L178.18 0.8 178.18-3.15 178.43-3.15 178.43 0.8ZM173.53-8.95L168.98-8.95 168.98-16.3 173.53-16.3 173.53-8.95ZM187.48-14.5L182.93-14.5 182.93-17.1 187.48-17.1 187.48-14.5ZM187.48-17.1L187.48-17.1 182.93-17.1Q182.93-19.3 181.61-20.7 180.28-22.1 178.18-22.1L178.18-22.1 178.18-26Q180.88-26 182.96-24.85 185.03-23.7 186.26-21.68 187.48-19.65 187.48-17.1ZM183.13-7.5L183.13-7.5 187.38-6.65Q187.08-4.5 185.83-2.8 184.58-1.1 182.68-0.15 180.78 0.8 178.43 0.8L178.43 0.8 178.43-3.15Q180.23-3.15 181.56-4.23 182.88-5.3 183.13-7.5ZM173.53-16.25L168.98-16.25Q168.98-19.1 170.21-21.28 171.43-23.45 173.51-24.73 175.58-26 178.23-26L178.23-26 178.23-22.1Q176.03-22.1 174.78-20.58 173.53-19.05 173.53-16.25L173.53-16.25ZM168.98-8.95L168.98-8.95 173.53-8.95Q173.53-6.2 174.78-4.67 176.03-3.15 178.23-3.15L178.23-3.15 178.23 0.8Q175.58 0.8 173.51-0.48 171.43-1.75 170.21-3.95 168.98-6.15 168.98-8.95Z" opacity="1" transform="matrix(1,0,0,1,0,0)" fill="#000000" class="wordmark-text-0" data-fill-palette-color="primary" id="text-0"></path></svg></g></svg></g></svg></g></svg></g><g><svg viewBox="0 0 106.80347681300813 106.80347681300813" height="106.80347681300813" width="106.80347681300813"><g><svg xmlns="http://www.w3.org/2000/svg" xmlns:xlink="http://www.w3.org/1999/xlink" version="1.1" x="0" y="0" viewBox="14 15 20 20" enable-background="new 0 0 50 50" xml:space="preserve" height="106.80347681300813" width="106.80347681300813" class="icon-icon-0" data-fill-palette-color="accent" id="icon-0"><path d="M14 35H34V15H14zM16 17H32V33H16z" fill="#000000" data-fill-palette-color="accent"></path><polygon points="23,27 26,25 23,23 " fill="#000000" data-fill-palette-color="accent"></polygon></svg></g></svg></g></svg></g><defs></defs></svg><rect width="395.52" height="81.14775112596344" fill="none" stroke="none" visibility="hidden"></rect></g></svg></g></svg>